<svg width="365" height="70" viewBox="0 0 365 70" fill="none" xmlns="http://www.w3.org/2000/svg">
<circle cx="42" cy="35" r="35" fill="#251558"/>
<circle cx="42" cy="35" r="23" stroke="#A374E8" stroke-width="2"/>
<path d="M10.16 34.28H23.08V40.4H10.16V34.28ZM10.72 50H2.8V22H24.76V28.12H10.72V50ZM42.3497 50.56C40.1097 50.56 38.043 50.2 36.1497 49.48C34.2564 48.76 32.603 47.7467 31.1897 46.44C29.803 45.1067 28.723 43.56 27.9497 41.8C27.1764 40.04 26.7897 38.1067 26.7897 36C26.7897 33.8933 27.1764 31.96 27.9497 30.2C28.723 28.44 29.803 26.9067 31.1897 25.6C32.603 24.2667 34.2564 23.24 36.1497 22.52C38.043 21.8 40.1097 21.44 42.3497 21.44C44.6164 21.44 46.683 21.8 48.5497 22.52C50.443 23.24 52.083 24.2667 53.4697 25.6C54.8564 26.9067 55.9364 28.44 56.7097 30.2C57.5097 31.96 57.9097 33.8933 57.9097 36C57.9097 38.1067 57.5097 40.0533 56.7097 41.84C55.9364 43.6 54.8564 45.1333 53.4697 46.44C52.083 47.7467 50.443 48.76 48.5497 49.48C46.683 50.2 44.6164 50.56 42.3497 50.56ZM42.3497 44C43.4164 44 44.403 43.8133 45.3097 43.44C46.243 43.0667 47.043 42.5333 47.7097 41.84C48.403 41.12 48.9364 40.2667 49.3097 39.28C49.7097 38.2933 49.9097 37.2 49.9097 36C49.9097 34.7733 49.7097 33.68 49.3097 32.72C48.9364 31.7333 48.403 30.8933 47.7097 30.2C47.043 29.48 46.243 28.9333 45.3097 28.56C44.403 28.1867 43.4164 28 42.3497 28C41.283 28 40.283 28.1867 39.3497 28.56C38.443 28.9333 37.643 29.48 36.9497 30.2C36.283 30.8933 35.7497 31.7333 35.3497 32.72C34.9764 33.68 34.7897 34.7733 34.7897 36C34.7897 37.2 34.9764 38.2933 35.3497 39.28C35.7497 40.2667 36.283 41.12 36.9497 41.84C37.643 42.5333 38.443 43.0667 39.3497 43.44C40.283 43.8133 41.283 44 42.3497 44ZM62.0578 50V22H74.8578C77.4178 22 79.6178 22.4133 81.4578 23.24C83.3245 24.0667 84.7645 25.2667 85.7778 26.84C86.7911 28.3867 87.2978 30.2267 87.2978 32.36C87.2978 34.4667 86.7911 36.2933 85.7778 37.84C84.7645 39.36 83.3245 40.5333 81.4578 41.36C79.6178 42.16 77.4178 42.56 74.8578 42.56H66.4578L69.9778 39.24V50H62.0578ZM79.3778 50L72.4178 39.8H80.8578L87.8578 50H79.3778ZM69.9778 40.08L66.4578 36.44H74.3778C76.0311 36.44 77.2578 36.08 78.0578 35.36C78.8845 34.64 79.2978 33.64 79.2978 32.36C79.2978 31.0533 78.8845 30.04 78.0578 29.32C77.2578 28.6 76.0311 28.24 74.3778 28.24H66.4578L69.9778 24.6V40.08ZM97.2366 50V28.28H88.6366V22H113.717V28.28H105.157V50H97.2366ZM116.667 50V22H123.187L138.627 40.64H135.547V22H143.307V50H136.787L121.347 31.36H124.427V50H116.667ZM148.894 50V22H156.814V50H148.894ZM168.408 50V28.28H159.808V22H184.888V28.28H176.328V50H168.408ZM195.119 32.84H208.119V38.76H195.119V32.84ZM195.679 43.88H210.319V50H187.839V22H209.799V28.12H195.679V43.88ZM217.945 50.36C216.665 50.36 215.585 49.9333 214.705 49.08C213.825 48.2267 213.385 47.1467 213.385 45.84C213.385 44.48 213.825 43.4 214.705 42.6C215.585 41.7733 216.665 41.36 217.945 41.36C219.225 41.36 220.305 41.7733 221.185 42.6C222.065 43.4 222.505 44.48 222.505 45.84C222.505 47.1467 222.065 48.2267 221.185 49.08C220.305 49.9333 219.225 50.36 217.945 50.36ZM236.663 50.56C234.37 50.56 232.157 50.28 230.023 49.72C227.917 49.1333 226.197 48.3867 224.863 47.48L227.463 41.64C228.717 42.44 230.157 43.1067 231.783 43.64C233.437 44.1467 235.077 44.4 236.703 44.4C237.797 44.4 238.677 44.3067 239.343 44.12C240.01 43.9067 240.49 43.64 240.783 43.32C241.103 42.9733 241.263 42.5733 241.263 42.12C241.263 41.48 240.97 40.9733 240.383 40.6C239.797 40.2267 239.037 39.92 238.103 39.68C237.17 39.44 236.13 39.2 234.983 38.96C233.863 38.72 232.73 38.4133 231.583 38.04C230.463 37.6667 229.437 37.1867 228.503 36.6C227.57 35.9867 226.81 35.2 226.223 34.24C225.637 33.2533 225.343 32.0133 225.343 30.52C225.343 28.84 225.797 27.32 226.703 25.96C227.637 24.6 229.023 23.5067 230.863 22.68C232.703 21.8533 234.997 21.44 237.743 21.44C239.583 21.44 241.383 21.6533 243.143 22.08C244.93 22.48 246.517 23.08 247.903 23.88L245.463 29.76C244.13 29.04 242.81 28.5067 241.503 28.16C240.197 27.7867 238.93 27.6 237.703 27.6C236.61 27.6 235.73 27.72 235.063 27.96C234.397 28.1733 233.917 28.4667 233.623 28.84C233.33 29.2133 233.183 29.64 233.183 30.12C233.183 30.7333 233.463 31.2267 234.023 31.6C234.61 31.9467 235.37 32.24 236.303 32.48C237.263 32.6933 238.303 32.92 239.423 33.16C240.57 33.4 241.703 33.7067 242.823 34.08C243.97 34.4267 245.01 34.9067 245.943 35.52C246.877 36.1067 247.623 36.8933 248.183 37.88C248.77 38.84 249.063 40.0533 249.063 41.52C249.063 43.1467 248.597 44.6533 247.663 46.04C246.757 47.4 245.383 48.4933 243.543 49.32C241.73 50.1467 239.437 50.56 236.663 50.56ZM258.291 50V28.28H249.691V22H274.771V28.28H266.211V50H258.291ZM291.451 50.56C289.211 50.56 287.145 50.2 285.251 49.48C283.358 48.76 281.705 47.7467 280.291 46.44C278.905 45.1067 277.825 43.56 277.051 41.8C276.278 40.04 275.891 38.1067 275.891 36C275.891 33.8933 276.278 31.96 277.051 30.2C277.825 28.44 278.905 26.9067 280.291 25.6C281.705 24.2667 283.358 23.24 285.251 22.52C287.145 21.8 289.211 21.44 291.451 21.44C293.718 21.44 295.785 21.8 297.651 22.52C299.545 23.24 301.185 24.2667 302.571 25.6C303.958 26.9067 305.038 28.44 305.811 30.2C306.611 31.96 307.011 33.8933 307.011 36C307.011 38.1067 306.611 40.0533 305.811 41.84C305.038 43.6 303.958 45.1333 302.571 46.44C301.185 47.7467 299.545 48.76 297.651 49.48C295.785 50.2 293.718 50.56 291.451 50.56ZM291.451 44C292.518 44 293.505 43.8133 294.411 43.44C295.345 43.0667 296.145 42.5333 296.811 41.84C297.505 41.12 298.038 40.2667 298.411 39.28C298.811 38.2933 299.011 37.2 299.011 36C299.011 34.7733 298.811 33.68 298.411 32.72C298.038 31.7333 297.505 30.8933 296.811 30.2C296.145 29.48 295.345 28.9333 294.411 28.56C293.505 28.1867 292.518 28 291.451 28C290.385 28 289.385 28.1867 288.451 28.56C287.545 28.9333 286.745 29.48 286.051 30.2C285.385 30.8933 284.851 31.7333 284.451 32.72C284.078 33.68 283.891 34.7733 283.891 36C283.891 37.2 284.078 38.2933 284.451 39.28C284.851 40.2667 285.385 41.12 286.051 41.84C286.745 42.5333 287.545 43.0667 288.451 43.44C289.385 43.8133 290.385 44 291.451 44ZM311.159 50V22H323.959C326.519 22 328.719 22.4133 330.559 23.24C332.426 24.0667 333.866 25.2667 334.879 26.84C335.893 28.3867 336.399 30.2267 336.399 32.36C336.399 34.4667 335.893 36.2933 334.879 37.84C333.866 39.36 332.426 40.5333 330.559 41.36C328.719 42.16 326.519 42.56 323.959 42.56H315.559L319.079 39.24V50H311.159ZM328.479 50L321.519 39.8H329.959L336.959 50H328.479ZM319.079 40.08L315.559 36.44H323.479C325.133 36.44 326.359 36.08 327.159 35.36C327.986 34.64 328.399 33.64 328.399 32.36C328.399 31.0533 327.986 30.04 327.159 29.32C326.359 28.6 325.133 28.24 323.479 28.24H315.559L319.079 24.6V40.08ZM348.049 32.84H361.049V38.76H348.049V32.84ZM348.609 43.88H363.249V50H340.769V22H362.729V28.12H348.609V43.88Z" fill="white"/>
<rect x="67" y="55" width="298" height="2" rx="1" fill="#251558"/>
</svg>
